<svg xmlns="http://www.w3.org/2000/svg" width="80" height="80" viewBox="0 0 80 80">
  <defs>
    <style>
      .cls-1 {
        fill: #fff;
      }

      .cls-2 {
        fill: #ccdce4;
      }

      .cls-3 {
        fill: #ff7272;
      }

      .cls-4 {
        fill: #d63434;
      }
    </style>
  </defs>
  <g id="Group_15" data-name="Group 15" transform="translate(-127 -329)">
    <rect id="Rectangle_579" data-name="Rectangle 579" class="cls-1" width="80" height="80" rx="20" transform="translate(127 329)"/>
    <g id="Flat" transform="translate(158 348)">
      <path id="Path_59" data-name="Path 59" class="cls-2" d="M177.407,24V64.617a1.451,1.451,0,0,1-1.451,1.451H165.947a1.453,1.453,0,0,1-1.3-.8,46.267,46.267,0,0,1-3.123-32.014A40.125,40.125,0,0,1,165.077,24Z" transform="translate(-160 -24)"/>
      <path id="Path_60" data-name="Path 60" class="cls-3" d="M192.739,24v5.407L176.86,33.256a46.1,46.1,0,0,1,2.151-6.355,28.254,28.254,0,0,1,1.4-2.9Z" transform="translate(-175.331 -24)"/>
      <path id="Path_61" data-name="Path 61" class="cls-4" d="M214.317,24v2.9H200.59a28.258,28.258,0,0,1,1.4-2.9Z" transform="translate(-196.91 -24)"/>
      <path id="Path_62" data-name="Path 62" class="cls-3" d="M203.7,162.916a43.609,43.609,0,0,1-3.7-17.407,42.772,42.772,0,0,1,.921-8.778l9.233-2.238v28.423Z" transform="translate(-196.374 -124.475)"/>
      <g id="Group_6" data-name="Group 6" transform="translate(6.323 16.996)">
        <circle id="Ellipse_5" data-name="Ellipse 5" class="cls-4" cx="2" cy="2" r="2" transform="translate(0.085 0.004)"/>
        <path id="Path_63" data-name="Path 63" class="cls-4" d="M248,288h1.451v1.451H248Z" transform="translate(-246.344 -281.061)"/>
        <path id="Path_64" data-name="Path 64" class="cls-4" d="M240,320h2.9v1.451H240Z" transform="translate(-239.07 -310.159)"/>
      </g>
    </g>
  </g>
</svg>
