<svg xmlns="http://www.w3.org/2000/svg" width="80" height="80" viewBox="0 0 80 80">
  <defs>
    <style>
      .cls-1 {
        fill: #fff;
      }

      .cls-2 {
        fill: #ccdce4;
      }

      .cls-3 {
        fill: #abbac2;
      }

      .cls-4 {
        fill: #58646f;
      }

      .cls-5 {
        fill: #ff7272;
      }
    </style>
  </defs>
  <g id="Group_12" data-name="Group 12" transform="translate(-221 -230)">
    <rect id="Rectangle_576" data-name="Rectangle 576" class="cls-1" width="80" height="80" rx="20" transform="translate(221 230)"/>
    <g id="Flat" transform="translate(245 249)">
      <path id="Path_36" data-name="Path 36" class="cls-2" d="M255.669,24l-3.086,26.836h5.988l.817,6.534,2.81-.731L258.571,24Z" transform="translate(-236.936 -24)"/>
      <path id="Path_37" data-name="Path 37" class="cls-3" d="M247.165,320l-.54,5.8,2.81.731.817-6.534Z" transform="translate(-231.518 -293.164)"/>
      <path id="Path_38" data-name="Path 38" class="cls-3" d="M294.628,280h1.451v1.451h-1.451Z" transform="translate(-275.169 -256.79)"/>
      <path id="Path_39" data-name="Path 39" class="cls-4" d="M179.7,352c-2.8,0-5.077,2.6-5.077,5.8s2.273,5.8,5.077,5.8,5.077-2.6,5.077-5.8S182.508,352,179.7,352Zm0,8.7c-1.179,0-2.176-1.329-2.176-2.9s1-2.9,2.176-2.9,2.176,1.329,2.176,2.9S180.884,360.7,179.7,360.7Z" transform="translate(-166.048 -322.263)"/>
      <path id="Path_40" data-name="Path 40" class="cls-4" d="M328.481,362.03l-.728-.727a6.331,6.331,0,0,0,1.028-3.5c0-3.2-2.273-5.8-5.077-5.8s-5.077,2.6-5.077,5.8,2.273,5.8,5.077,5.8a4.511,4.511,0,0,0,1.85-.4l.875.875a1.451,1.451,0,0,0,2.052-2.052ZM323.7,360.7c-1.179,0-2.176-1.329-2.176-2.9s1-2.9,2.176-2.9,2.176,1.329,2.176,2.9S324.884,360.7,323.7,360.7Z" transform="translate(-296.993 -322.263)"/>
      <path id="Path_41" data-name="Path 41" class="cls-5" d="M90.879,50.111H85.9a2.176,2.176,0,0,0-2.174,2.275l.424,9.335A4.158,4.158,0,0,1,80,66.067V26.9A2.9,2.9,0,0,1,82.9,24h7.978a1.451,1.451,0,1,1,0,2.9H87.253a1.451,1.451,0,1,0,0,2.9h3.626a1.451,1.451,0,1,1,0,2.9H87.253a1.451,1.451,0,1,0,0,2.9h3.626a1.451,1.451,0,1,1,0,2.9H87.253a1.451,1.451,0,1,0,0,2.9h3.626a1.451,1.451,0,1,1,0,2.9H87.253a1.451,1.451,0,1,0,0,2.9h3.626a1.451,1.451,0,1,1,0,2.9Z" transform="translate(-80 -24)"/>
    </g>
  </g>
</svg>
