<svg xmlns="http://www.w3.org/2000/svg" width="80" height="80" viewBox="0 0 80 80">
  <defs>
    <style>
      .cls-1 {
        fill: #fff;
      }

      .cls-2 {
        fill: #ccdce4;
      }

      .cls-3 {
        fill: #ff7272;
      }

      .cls-4 {
        fill: #abbac2;
      }
    </style>
  </defs>
  <g id="Group_10" data-name="Group 10" transform="translate(-21 -230)">
    <rect id="Rectangle_574" data-name="Rectangle 574" class="cls-1" width="80" height="80" rx="20" transform="translate(21 230)"/>
    <g id="Flat" transform="translate(42 249)">
      <path id="Path_1" data-name="Path 1" class="cls-2" d="M102.007,125l.828,3.577a1.921,1.921,0,1,1-3.792.392l.078-3.671-2.238-21.644-.828-3.577a1.921,1.921,0,1,1,3.792-.392l-.078,3.671Z" transform="translate(-91.654 -91.04)"/>
      <path id="Path_2" data-name="Path 2" class="cls-3" d="M0,0H2.9V21.759H0Z" transform="translate(5.235 12.618) rotate(-5.91)"/>
      <path id="Path_3" data-name="Path 3" class="cls-2" d="M179.375,115.561l.455,3.643a1.921,1.921,0,1,1-3.812,0l.455-3.643V93.8l-.455-3.643a1.921,1.921,0,1,1,3.812,0l-.455,3.643Z" transform="translate(-164.398 -82.198)"/>
      <path id="Path_4" data-name="Path 4" class="cls-3" d="M181.19,152h2.9v21.759h-2.9Z" transform="translate(-169.115 -140.395)"/>
      <path id="Path_5" data-name="Path 5" class="cls-2" d="M254.185,51.561l.455,3.643a1.921,1.921,0,1,1-3.812,0l.455-3.643V29.8l-.455-3.643a1.921,1.921,0,1,1,3.812,0l-.455,3.643Z" transform="translate(-232.426 -24)"/>
      <path id="Path_6" data-name="Path 6" class="cls-3" d="M256,88h2.9v21.759H256Z" transform="translate(-237.142 -82.198)"/>
      <path id="Path_7" data-name="Path 7" class="cls-2" d="M300.054,124.9l.126,3.669a1.921,1.921,0,1,1-3.8-.343l.781-3.588,1.956-21.671-.126-3.669a1.921,1.921,0,1,1,3.8.342l-.781,3.588Z" transform="translate(-273.824 -90.667)"/>
      <path id="Path_8" data-name="Path 8" class="cls-3" d="M0,0H21.759V2.9H0Z" transform="translate(23.343 33.975) rotate(-84.837)"/>
      <path id="Path_9" data-name="Path 9" class="cls-2" d="M72,224h29.012v5.8H72Z" transform="translate(-69.824 -205.868)"/>
      <path id="Path_10" data-name="Path 10" class="cls-3" d="M81.364,284.308H49.451A1.451,1.451,0,0,1,48,282.858V264H81.364Z" transform="translate(-48 -242.241)"/>
      <circle id="Ellipse_2" data-name="Ellipse 2" class="cls-2" cx="3" cy="3" r="3" transform="translate(14 26)"/>
      <path id="Path_11" data-name="Path 11" class="cls-2" d="M152,368h29.012v9.429a1.451,1.451,0,0,1-1.451,1.451H153.451A1.451,1.451,0,0,1,152,377.429Z" transform="translate(-142.571 -336.812)"/>
      <path id="Path_12" data-name="Path 12" class="cls-4" d="M152,368h29.012v2.9H152Z" transform="translate(-142.571 -336.812)"/>
    </g>
  </g>
</svg>
